<svg width="158" height="158" viewBox="0 0 158 158" fill="none" xmlns="http://www.w3.org/2000/svg">
<g filter="url(#filter0_i_4_11)">
<circle cx="79" cy="79" r="79" fill="#F9F9F9"/>
</g>
<path d="M33.8498 2.61903C23.5156 4.63216 14.105 7.85316 12.3153 10.0388C11.6802 10.7866 11.9112 12.7422 13.8741 22.3477C18.7814 45.7575 20.6866 53.4074 22.9382 57.7212C23.862 59.5618 23.8042 59.5618 18.0309 60.137C15.9525 60.367 14.4514 60.8272 13.7009 61.5749C12.6617 62.6102 12.6617 62.8978 13.3545 64.2783C14.4514 66.2339 18.2618 68.8222 21.1485 69.5699C22.4186 69.915 25.1321 70.3752 27.2105 70.5477C30.2704 70.8928 31.3096 71.2954 32.6374 72.6184C34.7736 74.689 38.6417 76.5871 40.6624 76.5871C41.5284 76.5871 42.2212 76.7021 42.2212 76.8172C42.2212 76.9897 41.2974 78.0826 40.2005 79.2904C39.1036 80.4983 37.4293 82.5114 36.621 83.7768C35.755 85.0422 34.023 87.4005 32.8684 89.0685C31.656 90.7365 30.6745 92.5771 30.6745 93.1523C30.6745 94.7628 32.1756 95.7406 34.4849 95.683L36.5056 95.6255L35.2354 97.3511C32.291 101.492 36.4478 103.966 41.7593 101.262C43.1449 100.572 44.7037 99.6518 45.281 99.1341C45.8006 98.674 46.4357 98.3864 46.5512 98.5589C46.8976 98.904 41.182 103.966 38.6417 105.634C36.7365 106.842 36.5056 109.027 38.1221 109.947C39.7386 110.81 43.6645 110.638 46.0893 109.66C48.9182 108.452 48.976 108.51 49.3801 111.213C50.0729 115.699 50.8812 118 51.7472 118C52.209 118 52.6132 117.885 52.6132 117.77C52.6132 117.655 51.4585 111.846 50.0152 104.886C48.5718 97.9262 47.4172 92.0594 47.4172 91.8869C47.4172 91.7143 47.9945 91.5418 48.745 91.5418C50.0152 91.5418 50.1884 92.0019 51.6894 99.1341C55.3266 116.677 55.673 118 56.4236 118C57.5205 118 57.4628 116.85 56.0772 110.753C55.4421 107.934 54.9225 105.346 54.9225 104.943C54.9225 104.598 56.8277 102.988 59.137 101.377C62.6588 98.904 63.698 98.4439 65.8918 98.4439C71.4342 98.5014 76.7457 99.5943 81.5376 101.665C90.1398 105.404 99.5504 108.222 103.649 108.222C105.266 108.222 106.074 108.855 109.769 113.111C112.194 115.872 114.503 118 115.081 118C115.658 118 116.12 117.827 116.12 117.655C116.12 117.425 114.272 115.297 112.079 112.823C108.384 108.74 108.095 108.279 109.307 108.107C110.058 107.992 110.635 107.589 110.635 107.129C110.635 106.496 109.885 106.324 107.171 106.439C100.878 106.669 92.1605 104.311 81.1912 99.4217C76.3416 97.236 75.6488 97.121 69.2981 96.8334L62.4856 96.5458L58.502 99.4792C53.9988 102.758 53.9988 102.758 53.4214 97.6387C53.075 94.7628 53.1328 94.5902 55.0957 92.8647C58.0978 90.2764 64.1598 88.9534 73.5126 88.9534C78.9396 88.9534 80.9025 88.7809 80.9025 88.2632C80.9025 87.8606 79.8056 87.2854 78.4777 86.8828C75.822 86.1926 72.8198 86.4227 60.8113 88.1482C50.1884 89.6437 45.8006 89.5861 43.3181 87.9181C41.8748 86.9978 41.2974 86.1351 41.182 84.8122C41.0088 83.2017 41.182 82.9141 42.6253 82.569C46.8976 81.6487 62.7742 76.8747 67.7393 75.0341C74.2054 72.7334 75.7065 71.8131 74.7828 70.8353C74.3209 70.3752 73.1662 70.7203 70.4528 71.9281C68.4321 72.9059 63.5248 74.574 59.5412 75.7818C55.5576 76.9322 51.6317 78.0826 50.7657 78.3126C49.3801 78.7153 49.1492 78.6577 49.1492 77.6799C49.1492 76.8172 50.477 75.9544 54.7493 73.9413C58.0401 72.3883 60.8113 71.4105 61.5041 71.583C62.1969 71.7556 63.3516 72.1007 64.1021 72.3308C65.199 72.6759 65.3722 72.5608 65.199 71.6405C65.0836 70.8928 63.7557 70.2026 60.4072 69.1098L55.7885 67.6718L56.77 64.7959C57.2896 63.1854 57.7514 61.2873 57.8092 60.4821C57.8669 57.7212 58.3865 57.4911 65.7186 57.146L72.5889 56.8584L82.3458 61.3448C87.7728 63.7606 94.9894 66.9241 98.4534 68.3045C108.672 72.4458 110.231 73.5962 123.048 86.0775C139.098 101.665 148.046 109.372 150.125 109.372C151.741 109.372 151.049 108.107 148.624 106.439C144.121 103.39 139.04 98.8465 125.646 85.7324C111.617 72.0432 110 70.8928 98.6844 66.3489C94.7585 64.7384 87.946 61.805 83.4428 59.7343C71.9538 54.4427 72.6466 54.5577 61.1577 55.593L58.3865 55.8231V50.2439C58.3865 47.1954 57.9824 42.1914 57.5782 39.2004C56.3081 31.0329 50.3616 3.36676 49.6688 2.67655C48.8028 1.81378 38.4108 1.75626 33.8498 2.61903ZM47.6481 4.40208C47.4172 7.22047 21.0908 13.3749 15.3752 11.9369L13.6432 11.4768L15.0865 10.3839C17.569 8.48586 29.693 5.03478 37.8912 3.94194C41.0665 3.4818 47.7058 3.8269 47.6481 4.40208ZM50.5348 13.7775C51.343 17.6312 52.0358 21.1973 52.0358 21.6575C52.0358 22.3477 51.2276 22.5202 48.5141 22.5202C40.3737 22.5202 26.2868 25.5112 20.2825 28.5596L17.4536 29.9976L16.8185 26.6615C16.4144 24.8785 15.6638 21.3124 15.0865 18.7241L14.105 14.0651L20.8021 13.72C29.2889 13.2598 41.5861 10.3264 47.1862 7.39302C48.11 6.93288 48.9182 6.53025 48.9182 6.58777C48.976 6.64529 49.6688 9.86629 50.5348 13.7775ZM51.6894 24.7634C52.6709 25.1661 52.6709 25.2236 51.4008 26.0863C48.9182 27.6393 41.9325 29.8825 35.4664 31.1479C28.0188 32.5859 18.8969 33.2761 18.3773 32.4708C18.1464 32.1257 19.3588 31.2054 21.033 30.4577C28.9425 26.604 47.5904 23.1529 51.6894 24.7634ZM54.5761 32.8735C57.9246 49.9563 57.0009 63.358 51.9781 70.3752C50.4193 72.5608 45.5697 74.8616 42.5098 74.8616C33.2725 74.804 24.6125 62.0351 19.9361 41.5012C19.1856 38.1651 18.5505 35.2892 18.5505 35.0016C18.5505 34.7716 20.2825 34.599 22.3609 34.599C30.6745 34.599 44.2418 31.7231 50.3038 28.6747C51.7472 27.9844 53.075 27.5243 53.2482 27.6968C53.4214 27.8694 54.0565 30.1701 54.5761 32.8735ZM26.7486 65.0835L28.8848 68.5346H26.6909C22.0145 68.5346 14.6246 65.0835 15.2597 63.1279C15.4906 62.4377 18.4928 61.8625 22.3032 61.7475C24.5548 61.6324 24.6702 61.7475 26.7486 65.0835ZM56.5968 70.2026C57.4628 70.7778 57.2318 70.8928 54.172 72.2157L51.9781 73.0785L53.306 71.4105C54.7493 69.6274 55.3266 69.3974 56.5968 70.2026ZM46.7821 79.5205C45.3388 80.4408 44.646 80.0957 44.415 78.3126C44.1841 76.9322 44.415 76.5871 45.3388 76.4721C46.8398 76.242 47.9945 78.7153 46.7821 79.5205ZM42.7985 80.0382C42.7985 80.3258 42.5098 80.6133 42.1634 80.6133C41.8748 80.6133 41.7593 80.3258 41.9325 80.0382C42.1057 79.6931 42.3944 79.463 42.5676 79.463C42.683 79.463 42.7985 79.6931 42.7985 80.0382ZM40.8356 88.7234C41.5284 89.4711 41.4129 89.8162 40.0273 91.1391C39.1613 91.9444 37.718 92.9222 36.852 93.2098C34.8313 93.9575 32.4065 94.015 32.4065 93.3248C32.4065 93.0372 33.7921 90.9666 35.4086 88.7234L38.4108 84.6396L39.219 86.2501C39.6809 87.1129 40.4314 88.2057 40.8356 88.7234ZM45.4542 92.6346C45.6274 93.4398 45.9161 94.5902 46.0316 95.1079C46.4357 96.6033 40.316 100.745 37.6025 100.745C35.6396 100.745 36.2746 98.9616 39.9118 94.5902C43.549 90.2188 44.8192 89.7587 45.4542 92.6346ZM47.0708 106.899C45.3388 108.164 41.8748 108.97 40.085 108.51L38.4685 108.107L40.1428 106.842C41.0665 106.209 43.0294 104.598 44.4728 103.39L47.1285 101.147L47.6481 103.621C48.11 105.749 48.0522 106.209 47.0708 106.899Z" fill="black"/>
<path d="M53.7585 134V125.273H55.6037V128.874H59.3494V125.273H61.1903V134H59.3494V130.395H55.6037V134H53.7585ZM64.2159 134H62.2386L65.2514 125.273H67.6293L70.6378 134H68.6605L66.4744 127.267H66.4062L64.2159 134ZM64.0923 130.57H68.7628V132.01H64.0923V130.57ZM78.9879 125.273V134H77.3942L73.5973 128.507H73.5334V134H71.6882V125.273H73.3075L77.0746 130.761H77.1513V125.273H78.9879ZM80.4187 134V132.905L84.7738 126.794H80.4102V125.273H87.092V126.368L82.7326 132.479H87.1005V134H80.4187ZM90.0206 134H88.0433L91.0561 125.273H93.4339L96.4425 134H94.4652L92.2791 127.267H92.2109L90.0206 134ZM89.897 130.57H94.5675V132.01H89.897V130.57ZM104.793 125.273V134H103.199L99.402 128.507H99.3381V134H97.4929V125.273H99.1122L102.879 130.761H102.956V125.273H104.793Z" fill="black"/>
<path d="M33 33.5L36 33L38.5 32.5L40.5 32L42.5 31.5L44.5 31L48.5 29.5L50.5 28.5L53 27.5L55 34L55.5 38L56 42.5L56.5 46V48.5V51V53.5V55L56 59.5L55.5 63L55 65L54 67L53 69L52 70.5L51 71.5L50 72.5L48 73.5L46.5 74L45 74.5L43.5 75H41.5L39.5 74.5L38 74L37 73.5L35.5 72.5L34.5 71.5L33 70.5L32 69L30.5 67.5L29.5 66L28.5 64.5L28 63.5L27.5 62.5L27 61.5L26.5 60.5L25.5 58.5L24.5 56.5L24 55L23 53L22.5 51L22 49.5L21.5 47.5L21 46L20.5 44.5L20 42.5L19.5 41L18.5 35L21.5 34.5H23H24.5H25.5L29 34L33 33.5Z" fill="#FFE679" stroke="black"/>
<ellipse cx="35.244" cy="28.5604" rx="17.5707" ry="2.6125" transform="rotate(-11.6558 35.244 28.5604)" fill="#FFE679"/>
<defs>
<filter id="filter0_i_4_11" x="0" y="0" width="160" height="160" filterUnits="userSpaceOnUse" color-interpolation-filters="sRGB">
<feFlood flood-opacity="0" result="BackgroundImageFix"/>
<feBlend mode="normal" in="SourceGraphic" in2="BackgroundImageFix" result="shape"/>
<feColorMatrix in="SourceAlpha" type="matrix" values="0 0 0 0 0 0 0 0 0 0 0 0 0 0 0 0 0 0 127 0" result="hardAlpha"/>
<feMorphology radius="10" operator="erode" in="SourceAlpha" result="effect1_innerShadow_4_11"/>
<feOffset dx="2" dy="2"/>
<feGaussianBlur stdDeviation="10"/>
<feComposite in2="hardAlpha" operator="arithmetic" k2="-1" k3="1"/>
<feColorMatrix type="matrix" values="0 0 0 0 0 0 0 0 0 0 0 0 0 0 0 0 0 0 0.2 0"/>
<feBlend mode="normal" in2="shape" result="effect1_innerShadow_4_11"/>
</filter>
</defs>
</svg>
