<svg width="25" height="24" viewBox="0 0 25 24" fill="none" xmlns="http://www.w3.org/2000/svg">
    <g clip-path="url(#clip0_257_395)">
        <path d="M12.98 2.163C16.184 2.163 16.564 2.175 17.83 2.233C21.082 2.381 22.601 3.924 22.749 7.152C22.807 8.417 22.818 8.797 22.818 12.001C22.818 15.206 22.806 15.585 22.749 16.85C22.6 20.075 21.085 21.621 17.83 21.769C16.564 21.827 16.186 21.839 12.98 21.839C9.77598 21.839 9.39598 21.827 8.13098 21.769C4.87098 21.62 3.35998 20.07 3.21198 16.849C3.15398 15.584 3.14198 15.205 3.14198 12C3.14198 8.796 3.15498 8.417 3.21198 7.151C3.36098 3.924 4.87598 2.38 8.13098 2.232C9.39698 2.175 9.77598 2.163 12.98 2.163ZM12.98 0C9.72098 0 9.31298 0.014 8.03298 0.072C3.67498 0.272 1.25298 2.69 1.05298 7.052C0.99398 8.333 0.97998 8.741 0.97998 12C0.97998 15.259 0.99398 15.668 1.05198 16.948C1.25198 21.306 3.66998 23.728 8.03198 23.928C9.31298 23.986 9.72098 24 12.98 24C16.239 24 16.648 23.986 17.928 23.928C22.282 23.728 24.71 21.31 24.907 16.948C24.966 15.668 24.98 15.259 24.98 12C24.98 8.741 24.966 8.333 24.908 7.053C24.712 2.699 22.291 0.273 17.929 0.073C16.648 0.014 16.239 0 12.98 0ZM12.98 5.838C9.57698 5.838 6.81798 8.597 6.81798 12C6.81798 15.403 9.57698 18.163 12.98 18.163C16.383 18.163 19.142 15.404 19.142 12C19.142 8.597 16.383 5.838 12.98 5.838ZM12.98 16C10.771 16 8.97998 14.21 8.97998 12C8.97998 9.791 10.771 8 12.98 8C15.189 8 16.98 9.791 16.98 12C16.98 14.21 15.189 16 12.98 16ZM19.386 4.155C18.59 4.155 17.945 4.8 17.945 5.595C17.945 6.39 18.59 7.035 19.386 7.035C20.181 7.035 20.825 6.39 20.825 5.595C20.825 4.8 20.181 4.155 19.386 4.155Z" fill="black"/>
    </g>
    <defs>
        <clipPath id="clip0_257_395">
            <rect width="24" height="24" fill="white" transform="translate(0.97998)"/>
        </clipPath>
    </defs>
</svg>
